<mxfile host="Electron" modified="2024-01-27T09:40:23.212Z" agent="Mozilla/5.0 (Macintosh; Intel Mac OS X 10_15_7) AppleWebKit/537.36 (KHTML, like Gecko) draw.io/22.1.16 Chrome/120.0.6099.109 Electron/28.1.0 Safari/537.36" etag="t0gwnkjmrYbznKHRSAlK" version="22.1.16" type="device" pages="2">
  <diagram name="Page-1" id="7SS0Zj02m69KFnHSXmlm">
    <mxGraphModel dx="1366" dy="421" grid="0" gridSize="10" guides="1" tooltips="1" connect="1" arrows="1" fold="1" page="0" pageScale="1" pageWidth="827" pageHeight="1169" math="0" shadow="0">
      <root>
        <mxCell id="0" />
        <mxCell id="1" parent="0" />
        <mxCell id="byipJYtMaaVgv9zrSN3y-1" value="Region" style="points=[[0,0],[0.25,0],[0.5,0],[0.75,0],[1,0],[1,0.25],[1,0.5],[1,0.75],[1,1],[0.75,1],[0.5,1],[0.25,1],[0,1],[0,0.75],[0,0.5],[0,0.25]];outlineConnect=0;html=1;whiteSpace=wrap;fontSize=7;fontStyle=0;container=1;pointerEvents=0;collapsible=0;recursiveResize=0;shape=mxgraph.aws4.group;grIcon=mxgraph.aws4.group_region;verticalAlign=top;align=left;spacingLeft=30;dashed=1;strokeWidth=0.5;" parent="1" vertex="1">
          <mxGeometry x="-72" y="108" width="737.5" height="343" as="geometry" />
        </mxCell>
        <mxCell id="byipJYtMaaVgv9zrSN3y-3" value="Frankfurth" style="text;html=1;align=center;verticalAlign=middle;resizable=0;points=[];autosize=1;strokeColor=none;fillColor=none;rotation=-90;" parent="byipJYtMaaVgv9zrSN3y-1" vertex="1">
          <mxGeometry x="-13.999999999999982" y="58" width="73" height="26" as="geometry" />
        </mxCell>
        <mxCell id="byipJYtMaaVgv9zrSN3y-5" value="VPC" style="points=[[0,0],[0.25,0],[0.5,0],[0.75,0],[1,0],[1,0.25],[1,0.5],[1,0.75],[1,1],[0.75,1],[0.5,1],[0.25,1],[0,1],[0,0.75],[0,0.5],[0,0.25]];outlineConnect=0;gradientColor=none;html=1;whiteSpace=wrap;fontSize=12;fontStyle=0;container=1;pointerEvents=0;collapsible=0;recursiveResize=0;shape=mxgraph.aws4.group;grIcon=mxgraph.aws4.group_vpc2;strokeColor=#8C4FFF;fillColor=none;verticalAlign=top;align=left;spacingLeft=30;fontColor=#AAB7B8;dashed=0;strokeWidth=0.5;" parent="byipJYtMaaVgv9zrSN3y-1" vertex="1">
          <mxGeometry x="99" y="15" width="638.5" height="316" as="geometry" />
        </mxCell>
        <mxCell id="byipJYtMaaVgv9zrSN3y-58" value="" style="group" parent="byipJYtMaaVgv9zrSN3y-5" vertex="1" connectable="0">
          <mxGeometry x="46" y="179" width="490" height="125" as="geometry" />
        </mxCell>
        <mxCell id="byipJYtMaaVgv9zrSN3y-62" value="Availability zone" style="sketch=0;outlineConnect=0;gradientColor=none;html=1;whiteSpace=wrap;fontSize=12;fontStyle=0;shape=mxgraph.aws4.group;grIcon=mxgraph.aws4.group_availability_zone;strokeColor=#545B64;fillColor=none;verticalAlign=top;align=left;spacingLeft=30;fontColor=#545B64;dashed=1;" parent="byipJYtMaaVgv9zrSN3y-58" vertex="1">
          <mxGeometry width="490" height="121" as="geometry" />
        </mxCell>
        <mxCell id="byipJYtMaaVgv9zrSN3y-106" style="edgeStyle=orthogonalEdgeStyle;rounded=0;orthogonalLoop=1;jettySize=auto;html=1;strokeWidth=0.5;flowAnimation=1;" parent="byipJYtMaaVgv9zrSN3y-5" target="byipJYtMaaVgv9zrSN3y-105" edge="1">
          <mxGeometry relative="1" as="geometry">
            <mxPoint x="20" y="159" as="sourcePoint" />
          </mxGeometry>
        </mxCell>
        <mxCell id="byipJYtMaaVgv9zrSN3y-57" value="" style="group" parent="byipJYtMaaVgv9zrSN3y-5" vertex="1" connectable="0">
          <mxGeometry x="46" y="19" width="592.5" height="265" as="geometry" />
        </mxCell>
        <mxCell id="byipJYtMaaVgv9zrSN3y-50" value="Availability zone" style="sketch=0;outlineConnect=0;gradientColor=none;html=1;whiteSpace=wrap;fontSize=12;fontStyle=0;shape=mxgraph.aws4.group;grIcon=mxgraph.aws4.group_availability_zone;strokeColor=#545B64;fillColor=none;verticalAlign=top;align=left;spacingLeft=30;fontColor=#545B64;dashed=1;" parent="byipJYtMaaVgv9zrSN3y-57" vertex="1">
          <mxGeometry width="490.99999999999994" height="121" as="geometry" />
        </mxCell>
        <mxCell id="byipJYtMaaVgv9zrSN3y-119" value="Private subnet" style="points=[[0,0],[0.25,0],[0.5,0],[0.75,0],[1,0],[1,0.25],[1,0.5],[1,0.75],[1,1],[0.75,1],[0.5,1],[0.25,1],[0,1],[0,0.75],[0,0.5],[0,0.25]];outlineConnect=0;gradientColor=none;html=1;whiteSpace=wrap;fontSize=12;fontStyle=0;container=1;pointerEvents=0;collapsible=0;recursiveResize=0;shape=mxgraph.aws4.group;grIcon=mxgraph.aws4.group_security_group;grStroke=0;strokeColor=#00A4A6;fillColor=#E6F6F7;verticalAlign=top;align=left;spacingLeft=30;fontColor=#147EBA;dashed=0;" parent="byipJYtMaaVgv9zrSN3y-57" vertex="1">
          <mxGeometry x="354" y="23" width="117.28" height="77" as="geometry" />
        </mxCell>
        <mxCell id="byipJYtMaaVgv9zrSN3y-122" value="Private subnet" style="points=[[0,0],[0.25,0],[0.5,0],[0.75,0],[1,0],[1,0.25],[1,0.5],[1,0.75],[1,1],[0.75,1],[0.5,1],[0.25,1],[0,1],[0,0.75],[0,0.5],[0,0.25]];outlineConnect=0;gradientColor=none;html=1;whiteSpace=wrap;fontSize=12;fontStyle=0;container=1;pointerEvents=0;collapsible=0;recursiveResize=0;shape=mxgraph.aws4.group;grIcon=mxgraph.aws4.group_security_group;grStroke=0;strokeColor=#00A4A6;fillColor=#E6F6F7;verticalAlign=top;align=left;spacingLeft=30;fontColor=#147EBA;dashed=0;" parent="byipJYtMaaVgv9zrSN3y-57" vertex="1">
          <mxGeometry x="354" y="183" width="117.28" height="77" as="geometry" />
        </mxCell>
        <mxCell id="byipJYtMaaVgv9zrSN3y-145" value="Postgres (main)" style="sketch=0;points=[[0,0,0],[0.25,0,0],[0.5,0,0],[0.75,0,0],[1,0,0],[0,1,0],[0.25,1,0],[0.5,1,0],[0.75,1,0],[1,1,0],[0,0.25,0],[0,0.5,0],[0,0.75,0],[1,0.25,0],[1,0.5,0],[1,0.75,0]];outlineConnect=0;fillColor=#f8cecc;strokeColor=#b85450;dashed=0;verticalLabelPosition=bottom;verticalAlign=top;align=center;html=1;fontSize=7;fontStyle=0;aspect=fixed;shape=mxgraph.aws4.resourceIcon;resIcon=mxgraph.aws4.rds;" parent="byipJYtMaaVgv9zrSN3y-57" vertex="1">
          <mxGeometry x="400.64" y="214" width="24" height="24" as="geometry" />
        </mxCell>
        <mxCell id="byipJYtMaaVgv9zrSN3y-117" value="" style="rounded=0;whiteSpace=wrap;html=1;fillColor=none;dashed=1;strokeWidth=0.5;" parent="byipJYtMaaVgv9zrSN3y-57" vertex="1">
          <mxGeometry x="510" y="9.5" width="82.5" height="246" as="geometry" />
        </mxCell>
        <mxCell id="529ISk0E2E657_WsYV65-1" value="CloudWatch" style="outlineConnect=0;dashed=0;verticalLabelPosition=bottom;verticalAlign=top;align=center;html=1;shape=mxgraph.aws3.cloudwatch;fillColor=#759C3E;gradientColor=none;fontSize=7;" parent="byipJYtMaaVgv9zrSN3y-57" vertex="1">
          <mxGeometry x="536.1700000000001" y="40" width="30.16" height="34" as="geometry" />
        </mxCell>
        <mxCell id="byipJYtMaaVgv9zrSN3y-105" value="" style="sketch=0;outlineConnect=0;fontColor=#232F3E;gradientColor=none;fillColor=#8C4FFF;strokeColor=none;dashed=0;verticalLabelPosition=bottom;verticalAlign=top;align=center;html=1;fontSize=12;fontStyle=0;aspect=fixed;pointerEvents=1;shape=mxgraph.aws4.application_load_balancer;" parent="byipJYtMaaVgv9zrSN3y-5" vertex="1">
          <mxGeometry x="126" y="138" width="42" height="42" as="geometry" />
        </mxCell>
        <mxCell id="529ISk0E2E657_WsYV65-4" value="" style="sketch=0;outlineConnect=0;fontColor=#232F3E;gradientColor=none;fillColor=#8C4FFF;strokeColor=none;dashed=0;verticalLabelPosition=bottom;verticalAlign=top;align=center;html=1;fontSize=12;fontStyle=0;aspect=fixed;pointerEvents=1;shape=mxgraph.aws4.internet_gateway;" parent="byipJYtMaaVgv9zrSN3y-5" vertex="1">
          <mxGeometry x="-9" y="144.5" width="29" height="29" as="geometry" />
        </mxCell>
        <mxCell id="byipJYtMaaVgv9zrSN3y-158" style="edgeStyle=orthogonalEdgeStyle;rounded=0;orthogonalLoop=1;jettySize=auto;html=1;strokeWidth=0.5;flowAnimation=1;" parent="1" source="byipJYtMaaVgv9zrSN3y-7" edge="1">
          <mxGeometry relative="1" as="geometry">
            <mxPoint x="18" y="282" as="targetPoint" />
          </mxGeometry>
        </mxCell>
        <mxCell id="byipJYtMaaVgv9zrSN3y-7" value="Route 53&lt;br style=&quot;font-size: 7px;&quot;&gt;DNS Management" style="outlineConnect=0;dashed=0;verticalLabelPosition=bottom;verticalAlign=top;align=center;html=1;shape=mxgraph.aws3.route_53;fillColor=#F58536;gradientColor=none;fontSize=7;" parent="1" vertex="1">
          <mxGeometry x="-128" y="267.74" width="24.34" height="29.52" as="geometry" />
        </mxCell>
        <mxCell id="byipJYtMaaVgv9zrSN3y-9" value="Actor" style="shape=umlActor;verticalLabelPosition=top;verticalAlign=bottom;html=1;outlineConnect=0;labelPosition=center;align=center;fontSize=7;" parent="1" vertex="1">
          <mxGeometry x="-124.66" y="199" width="18" height="36" as="geometry" />
        </mxCell>
        <mxCell id="byipJYtMaaVgv9zrSN3y-11" style="edgeStyle=orthogonalEdgeStyle;rounded=0;orthogonalLoop=1;jettySize=auto;html=1;exitX=0.5;exitY=0.5;exitDx=0;exitDy=0;exitPerimeter=0;entryX=0.5;entryY=0;entryDx=0;entryDy=0;entryPerimeter=0;" parent="1" source="byipJYtMaaVgv9zrSN3y-9" target="byipJYtMaaVgv9zrSN3y-7" edge="1">
          <mxGeometry relative="1" as="geometry" />
        </mxCell>
        <mxCell id="byipJYtMaaVgv9zrSN3y-12" value="" style="sketch=0;points=[[0,0,0],[0.25,0,0],[0.5,0,0],[0.75,0,0],[1,0,0],[0,1,0],[0.25,1,0],[0.5,1,0],[0.75,1,0],[1,1,0],[0,0.25,0],[0,0.5,0],[0,0.75,0],[1,0.25,0],[1,0.5,0],[1,0.75,0]];outlineConnect=0;fontColor=#232F3E;fillColor=#DD344C;strokeColor=#ffffff;dashed=0;verticalLabelPosition=bottom;verticalAlign=top;align=center;html=1;fontSize=12;fontStyle=0;aspect=fixed;shape=mxgraph.aws4.resourceIcon;resIcon=mxgraph.aws4.waf;" parent="1" vertex="1">
          <mxGeometry x="-186" y="259.5" width="40" height="40" as="geometry" />
        </mxCell>
        <mxCell id="byipJYtMaaVgv9zrSN3y-92" value="Public subnet" style="points=[[0,0],[0.25,0],[0.5,0],[0.75,0],[1,0],[1,0.25],[1,0.5],[1,0.75],[1,1],[0.75,1],[0.5,1],[0.25,1],[0,1],[0,0.75],[0,0.5],[0,0.25]];outlineConnect=0;gradientColor=none;html=1;whiteSpace=wrap;fontSize=12;fontStyle=0;container=1;pointerEvents=0;collapsible=0;recursiveResize=0;shape=mxgraph.aws4.group;grIcon=mxgraph.aws4.group_security_group;grStroke=0;strokeColor=#7AA116;fillColor=#F2F6E8;verticalAlign=top;align=left;spacingLeft=30;fontColor=#248814;dashed=0;" parent="1" vertex="1">
          <mxGeometry x="107" y="325" width="118" height="76" as="geometry" />
        </mxCell>
        <mxCell id="byipJYtMaaVgv9zrSN3y-93" value="Nat Gateway" style="sketch=0;outlineConnect=0;fontColor=#232F3E;gradientColor=none;fillColor=#8C4FFF;strokeColor=none;dashed=0;verticalLabelPosition=bottom;verticalAlign=top;align=center;html=1;fontSize=7;fontStyle=0;aspect=fixed;pointerEvents=1;shape=mxgraph.aws4.nat_gateway;" parent="byipJYtMaaVgv9zrSN3y-92" vertex="1">
          <mxGeometry x="46" y="29" width="29" height="29" as="geometry" />
        </mxCell>
        <mxCell id="byipJYtMaaVgv9zrSN3y-99" value="Private subnet" style="points=[[0,0],[0.25,0],[0.5,0],[0.75,0],[1,0],[1,0.25],[1,0.5],[1,0.75],[1,1],[0.75,1],[0.5,1],[0.25,1],[0,1],[0,0.75],[0,0.5],[0,0.25]];outlineConnect=0;gradientColor=none;html=1;whiteSpace=wrap;fontSize=12;fontStyle=0;container=1;pointerEvents=0;collapsible=0;recursiveResize=0;shape=mxgraph.aws4.group;grIcon=mxgraph.aws4.group_security_group;grStroke=0;strokeColor=#00A4A6;fillColor=#E6F6F7;verticalAlign=top;align=left;spacingLeft=30;fontColor=#147EBA;dashed=0;" parent="1" vertex="1">
          <mxGeometry x="269" y="165" width="117.28" height="77" as="geometry" />
        </mxCell>
        <mxCell id="byipJYtMaaVgv9zrSN3y-101" value="Public subnet" style="points=[[0,0],[0.25,0],[0.5,0],[0.75,0],[1,0],[1,0.25],[1,0.5],[1,0.75],[1,1],[0.75,1],[0.5,1],[0.25,1],[0,1],[0,0.75],[0,0.5],[0,0.25]];outlineConnect=0;gradientColor=none;html=1;whiteSpace=wrap;fontSize=12;fontStyle=0;container=1;pointerEvents=0;collapsible=0;recursiveResize=0;shape=mxgraph.aws4.group;grIcon=mxgraph.aws4.group_security_group;grStroke=0;strokeColor=#7AA116;fillColor=#F2F6E8;verticalAlign=top;align=left;spacingLeft=30;fontColor=#248814;dashed=0;" parent="1" vertex="1">
          <mxGeometry x="107" y="165" width="118" height="76" as="geometry" />
        </mxCell>
        <mxCell id="byipJYtMaaVgv9zrSN3y-102" value="Nat Gateway" style="sketch=0;outlineConnect=0;fontColor=#232F3E;gradientColor=none;fillColor=#8C4FFF;strokeColor=none;dashed=0;verticalLabelPosition=bottom;verticalAlign=top;align=center;html=1;fontSize=7;fontStyle=0;aspect=fixed;pointerEvents=1;shape=mxgraph.aws4.nat_gateway;" parent="byipJYtMaaVgv9zrSN3y-101" vertex="1">
          <mxGeometry x="46" y="29" width="29" height="29" as="geometry" />
        </mxCell>
        <mxCell id="byipJYtMaaVgv9zrSN3y-103" style="edgeStyle=orthogonalEdgeStyle;rounded=0;orthogonalLoop=1;jettySize=auto;html=1;strokeWidth=0.5;flowAnimation=1;" parent="1" source="byipJYtMaaVgv9zrSN3y-102" edge="1">
          <mxGeometry relative="1" as="geometry">
            <mxPoint x="32.53846153846143" y="267.5" as="targetPoint" />
          </mxGeometry>
        </mxCell>
        <mxCell id="byipJYtMaaVgv9zrSN3y-104" style="edgeStyle=orthogonalEdgeStyle;rounded=0;orthogonalLoop=1;jettySize=auto;html=1;strokeWidth=0.5;flowAnimation=1;" parent="1" source="byipJYtMaaVgv9zrSN3y-93" edge="1">
          <mxGeometry relative="1" as="geometry">
            <mxPoint x="32.53846153846143" y="296.5" as="targetPoint" />
          </mxGeometry>
        </mxCell>
        <mxCell id="byipJYtMaaVgv9zrSN3y-111" value="" style="sketch=0;outlineConnect=0;fontColor=#232F3E;gradientColor=none;fillColor=#ED7100;strokeColor=none;dashed=0;verticalLabelPosition=bottom;verticalAlign=top;align=center;html=1;fontSize=12;fontStyle=0;aspect=fixed;pointerEvents=1;shape=mxgraph.aws4.auto_scaling2;" parent="1" vertex="1">
          <mxGeometry x="316.5" y="269.98044692737426" width="22.363636363636363" height="22.363636363636363" as="geometry" />
        </mxCell>
        <mxCell id="byipJYtMaaVgv9zrSN3y-114" value="Private subnet" style="points=[[0,0],[0.25,0],[0.5,0],[0.75,0],[1,0],[1,0.25],[1,0.5],[1,0.75],[1,1],[0.75,1],[0.5,1],[0.25,1],[0,1],[0,0.75],[0,0.5],[0,0.25]];outlineConnect=0;gradientColor=none;html=1;whiteSpace=wrap;fontSize=12;fontStyle=0;container=1;pointerEvents=0;collapsible=0;recursiveResize=0;shape=mxgraph.aws4.group;grIcon=mxgraph.aws4.group_security_group;grStroke=0;strokeColor=#00A4A6;fillColor=#E6F6F7;verticalAlign=top;align=left;spacingLeft=30;fontColor=#147EBA;dashed=0;" parent="1" vertex="1">
          <mxGeometry x="269" y="325" width="117.28" height="77" as="geometry" />
        </mxCell>
        <mxCell id="byipJYtMaaVgv9zrSN3y-126" value="19.50.22.33" style="text;html=1;align=center;verticalAlign=middle;resizable=0;points=[];autosize=1;strokeColor=none;fillColor=none;fontSize=5;" parent="1" vertex="1">
          <mxGeometry x="305" y="340" width="44" height="18" as="geometry" />
        </mxCell>
        <mxCell id="byipJYtMaaVgv9zrSN3y-149" value="" style="edgeStyle=orthogonalEdgeStyle;rounded=0;orthogonalLoop=1;jettySize=auto;html=1;entryX=0;entryY=0.75;entryDx=0;entryDy=0;entryPerimeter=0;exitX=1;exitY=0.75;exitDx=0;exitDy=0;exitPerimeter=0;strokeWidth=0.5;flowAnimation=1;" parent="1" source="byipJYtMaaVgv9zrSN3y-147" target="byipJYtMaaVgv9zrSN3y-145" edge="1">
          <mxGeometry relative="1" as="geometry" />
        </mxCell>
        <mxCell id="529ISk0E2E657_WsYV65-7" style="edgeStyle=orthogonalEdgeStyle;rounded=0;orthogonalLoop=1;jettySize=auto;html=1;exitX=0;exitY=0.75;exitDx=0;exitDy=0;exitPerimeter=0;strokeWidth=0.5;flowAnimation=1;" parent="1" source="byipJYtMaaVgv9zrSN3y-147" target="byipJYtMaaVgv9zrSN3y-93" edge="1">
          <mxGeometry relative="1" as="geometry" />
        </mxCell>
        <mxCell id="byipJYtMaaVgv9zrSN3y-147" value="Wordpress Server" style="sketch=0;points=[[0,0,0],[0.25,0,0],[0.5,0,0],[0.75,0,0],[1,0,0],[0,1,0],[0.25,1,0],[0.5,1,0],[0.75,1,0],[1,1,0],[0,0.25,0],[0,0.5,0],[0,0.75,0],[1,0.25,0],[1,0.5,0],[1,0.75,0]];outlineConnect=0;fontColor=#232F3E;fillColor=#ED7100;strokeColor=#ffffff;dashed=0;verticalLabelPosition=bottom;verticalAlign=top;align=center;html=1;fontSize=7;fontStyle=0;aspect=fixed;shape=mxgraph.aws4.resourceIcon;resIcon=mxgraph.aws4.ec2;" parent="1" vertex="1">
          <mxGeometry x="314.64" y="355" width="26" height="26" as="geometry" />
        </mxCell>
        <mxCell id="byipJYtMaaVgv9zrSN3y-148" style="edgeStyle=orthogonalEdgeStyle;rounded=0;orthogonalLoop=1;jettySize=auto;html=1;entryX=0;entryY=0.5;entryDx=0;entryDy=0;entryPerimeter=0;strokeWidth=0.5;flowAnimation=1;" parent="1" target="byipJYtMaaVgv9zrSN3y-147" edge="1">
          <mxGeometry relative="1" as="geometry">
            <mxPoint x="195" y="282" as="sourcePoint" />
          </mxGeometry>
        </mxCell>
        <mxCell id="byipJYtMaaVgv9zrSN3y-150" value="Postgres (replica)" style="sketch=0;points=[[0,0,0],[0.25,0,0],[0.5,0,0],[0.75,0,0],[1,0,0],[0,1,0],[0.25,1,0],[0.5,1,0],[0.75,1,0],[1,1,0],[0,0.25,0],[0,0.5,0],[0,0.75,0],[1,0.25,0],[1,0.5,0],[1,0.75,0]];outlineConnect=0;fillColor=#f8cecc;strokeColor=#b85450;dashed=0;verticalLabelPosition=top;verticalAlign=bottom;align=center;html=1;fontSize=7;fontStyle=0;aspect=fixed;shape=mxgraph.aws4.resourceIcon;resIcon=mxgraph.aws4.rds;labelPosition=center;" parent="1" vertex="1">
          <mxGeometry x="474.14" y="204" width="24" height="24" as="geometry" />
        </mxCell>
        <mxCell id="529ISk0E2E657_WsYV65-6" style="edgeStyle=orthogonalEdgeStyle;rounded=0;orthogonalLoop=1;jettySize=auto;html=1;exitX=0;exitY=0.25;exitDx=0;exitDy=0;exitPerimeter=0;strokeWidth=0.5;flowAnimation=1;" parent="1" source="byipJYtMaaVgv9zrSN3y-151" target="byipJYtMaaVgv9zrSN3y-102" edge="1">
          <mxGeometry relative="1" as="geometry" />
        </mxCell>
        <mxCell id="byipJYtMaaVgv9zrSN3y-151" value="Wordpress Server" style="sketch=0;points=[[0,0,0],[0.25,0,0],[0.5,0,0],[0.75,0,0],[1,0,0],[0,1,0],[0.25,1,0],[0.5,1,0],[0.75,1,0],[1,1,0],[0,0.25,0],[0,0.5,0],[0,0.75,0],[1,0.25,0],[1,0.5,0],[1,0.75,0]];outlineConnect=0;fontColor=#232F3E;fillColor=#ED7100;strokeColor=#ffffff;dashed=0;verticalLabelPosition=bottom;verticalAlign=top;align=center;html=1;fontSize=7;fontStyle=0;aspect=fixed;shape=mxgraph.aws4.resourceIcon;resIcon=mxgraph.aws4.ec2;" parent="1" vertex="1">
          <mxGeometry x="314.64" y="198" width="26" height="26" as="geometry" />
        </mxCell>
        <mxCell id="byipJYtMaaVgv9zrSN3y-152" style="edgeStyle=orthogonalEdgeStyle;rounded=0;orthogonalLoop=1;jettySize=auto;html=1;entryX=0;entryY=0.5;entryDx=0;entryDy=0;entryPerimeter=0;strokeWidth=0.5;flowAnimation=1;" parent="1" target="byipJYtMaaVgv9zrSN3y-151" edge="1">
          <mxGeometry relative="1" as="geometry">
            <mxPoint x="195" y="282" as="sourcePoint" />
          </mxGeometry>
        </mxCell>
        <mxCell id="byipJYtMaaVgv9zrSN3y-153" value="19.50.22.34" style="text;html=1;align=center;verticalAlign=middle;resizable=0;points=[];autosize=1;strokeColor=none;fillColor=none;fontSize=5;" parent="1" vertex="1">
          <mxGeometry x="304" y="180" width="44" height="18" as="geometry" />
        </mxCell>
        <mxCell id="byipJYtMaaVgv9zrSN3y-154" style="edgeStyle=orthogonalEdgeStyle;rounded=0;orthogonalLoop=1;jettySize=auto;html=1;entryX=0;entryY=0.25;entryDx=0;entryDy=0;entryPerimeter=0;strokeWidth=0.5;flowAnimation=1;" parent="1" source="byipJYtMaaVgv9zrSN3y-151" target="byipJYtMaaVgv9zrSN3y-145" edge="1">
          <mxGeometry relative="1" as="geometry" />
        </mxCell>
        <mxCell id="byipJYtMaaVgv9zrSN3y-155" style="edgeStyle=orthogonalEdgeStyle;rounded=0;orthogonalLoop=1;jettySize=auto;html=1;entryX=0.5;entryY=1;entryDx=0;entryDy=0;entryPerimeter=0;strokeWidth=0.5;flowAnimation=1;" parent="1" source="byipJYtMaaVgv9zrSN3y-145" target="byipJYtMaaVgv9zrSN3y-150" edge="1">
          <mxGeometry relative="1" as="geometry" />
        </mxCell>
        <mxCell id="byipJYtMaaVgv9zrSN3y-157" value="5432" style="text;html=1;align=center;verticalAlign=middle;resizable=0;points=[];autosize=1;strokeColor=none;fillColor=none;fontSize=7;" parent="1" vertex="1">
          <mxGeometry x="427" y="381" width="34" height="20" as="geometry" />
        </mxCell>
        <mxCell id="byipJYtMaaVgv9zrSN3y-161" value="S3" style="outlineConnect=0;dashed=0;verticalLabelPosition=bottom;verticalAlign=top;align=center;html=1;shape=mxgraph.aws3.s3;fillColor=#E05243;gradientColor=none;fontSize=7;" parent="1" vertex="1">
          <mxGeometry x="607.25" y="255" width="34" height="41.33" as="geometry" />
        </mxCell>
        <mxCell id="byipJYtMaaVgv9zrSN3y-163" style="edgeStyle=orthogonalEdgeStyle;rounded=0;orthogonalLoop=1;jettySize=auto;html=1;exitX=0.75;exitY=0;exitDx=0;exitDy=0;exitPerimeter=0;entryX=0;entryY=0.79;entryDx=0;entryDy=0;entryPerimeter=0;strokeWidth=0.5;flowAnimation=1;" parent="1" source="byipJYtMaaVgv9zrSN3y-147" target="byipJYtMaaVgv9zrSN3y-161" edge="1">
          <mxGeometry relative="1" as="geometry" />
        </mxCell>
        <mxCell id="byipJYtMaaVgv9zrSN3y-164" style="edgeStyle=orthogonalEdgeStyle;rounded=0;orthogonalLoop=1;jettySize=auto;html=1;exitX=0.75;exitY=1;exitDx=0;exitDy=0;exitPerimeter=0;entryX=0;entryY=0.5;entryDx=0;entryDy=0;entryPerimeter=0;strokeWidth=0.5;flowAnimation=1;" parent="1" source="byipJYtMaaVgv9zrSN3y-151" target="byipJYtMaaVgv9zrSN3y-161" edge="1">
          <mxGeometry relative="1" as="geometry" />
        </mxCell>
        <mxCell id="529ISk0E2E657_WsYV65-8" value="" style="rounded=0;whiteSpace=wrap;html=1;fillColor=none;dashed=1;strokeWidth=0.5;" parent="1" vertex="1">
          <mxGeometry x="286" y="161" width="82.5" height="246" as="geometry" />
        </mxCell>
      </root>
    </mxGraphModel>
  </diagram>
  <diagram id="sP8hipIb0NugCTGx8AUm" name="Page-2">
    <mxGraphModel dx="1594" dy="853" grid="0" gridSize="10" guides="1" tooltips="1" connect="1" arrows="1" fold="1" page="0" pageScale="1" pageWidth="827" pageHeight="1169" math="0" shadow="0">
      <root>
        <mxCell id="0" />
        <mxCell id="1" parent="0" />
        <mxCell id="Mk-wmRrCm_N_TDCvmCY9-1" value="Region" style="points=[[0,0],[0.25,0],[0.5,0],[0.75,0],[1,0],[1,0.25],[1,0.5],[1,0.75],[1,1],[0.75,1],[0.5,1],[0.25,1],[0,1],[0,0.75],[0,0.5],[0,0.25]];outlineConnect=0;html=1;whiteSpace=wrap;fontSize=7;fontStyle=0;container=1;pointerEvents=0;collapsible=0;recursiveResize=0;shape=mxgraph.aws4.group;grIcon=mxgraph.aws4.group_region;verticalAlign=top;align=left;spacingLeft=30;dashed=1;" vertex="1" parent="1">
          <mxGeometry x="-72" y="108" width="737.5" height="343" as="geometry" />
        </mxCell>
        <mxCell id="Mk-wmRrCm_N_TDCvmCY9-2" value="Frankfurth" style="text;html=1;align=center;verticalAlign=middle;resizable=0;points=[];autosize=1;strokeColor=none;fillColor=none;rotation=-90;" vertex="1" parent="Mk-wmRrCm_N_TDCvmCY9-1">
          <mxGeometry x="-13.999999999999982" y="58" width="73" height="26" as="geometry" />
        </mxCell>
        <mxCell id="Mk-wmRrCm_N_TDCvmCY9-3" value="VPC" style="points=[[0,0],[0.25,0],[0.5,0],[0.75,0],[1,0],[1,0.25],[1,0.5],[1,0.75],[1,1],[0.75,1],[0.5,1],[0.25,1],[0,1],[0,0.75],[0,0.5],[0,0.25]];outlineConnect=0;gradientColor=none;html=1;whiteSpace=wrap;fontSize=12;fontStyle=0;container=1;pointerEvents=0;collapsible=0;recursiveResize=0;shape=mxgraph.aws4.group;grIcon=mxgraph.aws4.group_vpc2;strokeColor=#8C4FFF;fillColor=none;verticalAlign=top;align=left;spacingLeft=30;fontColor=#AAB7B8;dashed=0;" vertex="1" parent="Mk-wmRrCm_N_TDCvmCY9-1">
          <mxGeometry x="99" y="15" width="638.5" height="316" as="geometry" />
        </mxCell>
        <mxCell id="Mk-wmRrCm_N_TDCvmCY9-4" value="" style="group" vertex="1" connectable="0" parent="Mk-wmRrCm_N_TDCvmCY9-3">
          <mxGeometry x="46" y="179" width="490" height="125" as="geometry" />
        </mxCell>
        <mxCell id="Mk-wmRrCm_N_TDCvmCY9-5" value="Availability zone" style="sketch=0;outlineConnect=0;gradientColor=none;html=1;whiteSpace=wrap;fontSize=12;fontStyle=0;shape=mxgraph.aws4.group;grIcon=mxgraph.aws4.group_availability_zone;strokeColor=#545B64;fillColor=none;verticalAlign=top;align=left;spacingLeft=30;fontColor=#545B64;dashed=1;" vertex="1" parent="Mk-wmRrCm_N_TDCvmCY9-4">
          <mxGeometry width="490" height="121" as="geometry" />
        </mxCell>
        <mxCell id="Mk-wmRrCm_N_TDCvmCY9-6" style="edgeStyle=orthogonalEdgeStyle;rounded=0;orthogonalLoop=1;jettySize=auto;html=1;strokeWidth=0.5;" edge="1" parent="Mk-wmRrCm_N_TDCvmCY9-3" source="Mk-wmRrCm_N_TDCvmCY9-7" target="Mk-wmRrCm_N_TDCvmCY9-14">
          <mxGeometry relative="1" as="geometry" />
        </mxCell>
        <mxCell id="Mk-wmRrCm_N_TDCvmCY9-7" value="Internet&lt;br style=&quot;font-size: 7px;&quot;&gt;Gateway" style="sketch=0;outlineConnect=0;fontColor=#232F3E;gradientColor=none;fillColor=#8C4FFF;strokeColor=none;dashed=0;verticalLabelPosition=bottom;verticalAlign=top;align=center;html=1;fontSize=7;fontStyle=0;aspect=fixed;pointerEvents=1;shape=mxgraph.aws4.nat_gateway;" vertex="1" parent="Mk-wmRrCm_N_TDCvmCY9-3">
          <mxGeometry x="-9" y="144.5" width="29" height="29" as="geometry" />
        </mxCell>
        <mxCell id="Mk-wmRrCm_N_TDCvmCY9-8" value="" style="group" vertex="1" connectable="0" parent="Mk-wmRrCm_N_TDCvmCY9-3">
          <mxGeometry x="46" y="19" width="592.5" height="265" as="geometry" />
        </mxCell>
        <mxCell id="Mk-wmRrCm_N_TDCvmCY9-9" value="Availability zone" style="sketch=0;outlineConnect=0;gradientColor=none;html=1;whiteSpace=wrap;fontSize=12;fontStyle=0;shape=mxgraph.aws4.group;grIcon=mxgraph.aws4.group_availability_zone;strokeColor=#545B64;fillColor=none;verticalAlign=top;align=left;spacingLeft=30;fontColor=#545B64;dashed=1;" vertex="1" parent="Mk-wmRrCm_N_TDCvmCY9-8">
          <mxGeometry width="490.99999999999994" height="121" as="geometry" />
        </mxCell>
        <mxCell id="Mk-wmRrCm_N_TDCvmCY9-10" value="Private subnet" style="points=[[0,0],[0.25,0],[0.5,0],[0.75,0],[1,0],[1,0.25],[1,0.5],[1,0.75],[1,1],[0.75,1],[0.5,1],[0.25,1],[0,1],[0,0.75],[0,0.5],[0,0.25]];outlineConnect=0;gradientColor=none;html=1;whiteSpace=wrap;fontSize=12;fontStyle=0;container=1;pointerEvents=0;collapsible=0;recursiveResize=0;shape=mxgraph.aws4.group;grIcon=mxgraph.aws4.group_security_group;grStroke=0;strokeColor=#00A4A6;fillColor=#E6F6F7;verticalAlign=top;align=left;spacingLeft=30;fontColor=#147EBA;dashed=0;" vertex="1" parent="Mk-wmRrCm_N_TDCvmCY9-8">
          <mxGeometry x="354" y="23" width="117.28" height="77" as="geometry" />
        </mxCell>
        <mxCell id="Mk-wmRrCm_N_TDCvmCY9-11" value="Private subnet" style="points=[[0,0],[0.25,0],[0.5,0],[0.75,0],[1,0],[1,0.25],[1,0.5],[1,0.75],[1,1],[0.75,1],[0.5,1],[0.25,1],[0,1],[0,0.75],[0,0.5],[0,0.25]];outlineConnect=0;gradientColor=none;html=1;whiteSpace=wrap;fontSize=12;fontStyle=0;container=1;pointerEvents=0;collapsible=0;recursiveResize=0;shape=mxgraph.aws4.group;grIcon=mxgraph.aws4.group_security_group;grStroke=0;strokeColor=#00A4A6;fillColor=#E6F6F7;verticalAlign=top;align=left;spacingLeft=30;fontColor=#147EBA;dashed=0;" vertex="1" parent="Mk-wmRrCm_N_TDCvmCY9-8">
          <mxGeometry x="354" y="183" width="117.28" height="77" as="geometry" />
        </mxCell>
        <mxCell id="Mk-wmRrCm_N_TDCvmCY9-12" value="Postgres (main)" style="sketch=0;points=[[0,0,0],[0.25,0,0],[0.5,0,0],[0.75,0,0],[1,0,0],[0,1,0],[0.25,1,0],[0.5,1,0],[0.75,1,0],[1,1,0],[0,0.25,0],[0,0.5,0],[0,0.75,0],[1,0.25,0],[1,0.5,0],[1,0.75,0]];outlineConnect=0;fillColor=#f8cecc;strokeColor=#b85450;dashed=0;verticalLabelPosition=bottom;verticalAlign=top;align=center;html=1;fontSize=7;fontStyle=0;aspect=fixed;shape=mxgraph.aws4.resourceIcon;resIcon=mxgraph.aws4.rds;" vertex="1" parent="Mk-wmRrCm_N_TDCvmCY9-8">
          <mxGeometry x="400.64" y="214" width="24" height="24" as="geometry" />
        </mxCell>
        <mxCell id="Mk-wmRrCm_N_TDCvmCY9-13" value="" style="rounded=0;whiteSpace=wrap;html=1;fillColor=none;dashed=1;strokeWidth=0.5;" vertex="1" parent="Mk-wmRrCm_N_TDCvmCY9-8">
          <mxGeometry x="510" y="9.5" width="82.5" height="246" as="geometry" />
        </mxCell>
        <mxCell id="Mk-wmRrCm_N_TDCvmCY9-14" value="" style="sketch=0;outlineConnect=0;fontColor=#232F3E;gradientColor=none;fillColor=#8C4FFF;strokeColor=none;dashed=0;verticalLabelPosition=bottom;verticalAlign=top;align=center;html=1;fontSize=12;fontStyle=0;aspect=fixed;pointerEvents=1;shape=mxgraph.aws4.application_load_balancer;" vertex="1" parent="Mk-wmRrCm_N_TDCvmCY9-3">
          <mxGeometry x="126" y="138" width="42" height="42" as="geometry" />
        </mxCell>
        <mxCell id="Mk-wmRrCm_N_TDCvmCY9-15" value="Actor" style="shape=umlActor;verticalLabelPosition=top;verticalAlign=bottom;html=1;outlineConnect=0;labelPosition=center;align=center;fontSize=7;" vertex="1" parent="1">
          <mxGeometry x="-134.66000000000003" y="149" width="30" height="60" as="geometry" />
        </mxCell>
        <mxCell id="Mk-wmRrCm_N_TDCvmCY9-16" style="edgeStyle=orthogonalEdgeStyle;rounded=0;orthogonalLoop=1;jettySize=auto;html=1;exitX=0.5;exitY=0.5;exitDx=0;exitDy=0;exitPerimeter=0;entryX=0.5;entryY=0;entryDx=0;entryDy=0;entryPerimeter=0;" edge="1" parent="1" source="Mk-wmRrCm_N_TDCvmCY9-15">
          <mxGeometry relative="1" as="geometry">
            <mxPoint x="-119.82999999999993" y="258.25" as="targetPoint" />
          </mxGeometry>
        </mxCell>
        <mxCell id="Mk-wmRrCm_N_TDCvmCY9-17" value="" style="sketch=0;points=[[0,0,0],[0.25,0,0],[0.5,0,0],[0.75,0,0],[1,0,0],[0,1,0],[0.25,1,0],[0.5,1,0],[0.75,1,0],[1,1,0],[0,0.25,0],[0,0.5,0],[0,0.75,0],[1,0.25,0],[1,0.5,0],[1,0.75,0]];outlineConnect=0;fontColor=#232F3E;fillColor=#DD344C;strokeColor=#ffffff;dashed=0;verticalLabelPosition=bottom;verticalAlign=top;align=center;html=1;fontSize=12;fontStyle=0;aspect=fixed;shape=mxgraph.aws4.resourceIcon;resIcon=mxgraph.aws4.waf;" vertex="1" parent="1">
          <mxGeometry x="-206.66" y="541" width="40" height="40" as="geometry" />
        </mxCell>
        <mxCell id="Mk-wmRrCm_N_TDCvmCY9-18" value="Public subnet" style="points=[[0,0],[0.25,0],[0.5,0],[0.75,0],[1,0],[1,0.25],[1,0.5],[1,0.75],[1,1],[0.75,1],[0.5,1],[0.25,1],[0,1],[0,0.75],[0,0.5],[0,0.25]];outlineConnect=0;gradientColor=none;html=1;whiteSpace=wrap;fontSize=12;fontStyle=0;container=1;pointerEvents=0;collapsible=0;recursiveResize=0;shape=mxgraph.aws4.group;grIcon=mxgraph.aws4.group_security_group;grStroke=0;strokeColor=#7AA116;fillColor=#F2F6E8;verticalAlign=top;align=left;spacingLeft=30;fontColor=#248814;dashed=0;" vertex="1" parent="1">
          <mxGeometry x="107" y="325" width="118" height="76" as="geometry" />
        </mxCell>
        <mxCell id="Mk-wmRrCm_N_TDCvmCY9-19" value="" style="sketch=0;outlineConnect=0;fontColor=#232F3E;gradientColor=none;fillColor=#8C4FFF;strokeColor=none;dashed=0;verticalLabelPosition=bottom;verticalAlign=top;align=center;html=1;fontSize=12;fontStyle=0;aspect=fixed;pointerEvents=1;shape=mxgraph.aws4.nat_gateway;" vertex="1" parent="Mk-wmRrCm_N_TDCvmCY9-18">
          <mxGeometry x="46" y="29" width="29" height="29" as="geometry" />
        </mxCell>
        <mxCell id="Mk-wmRrCm_N_TDCvmCY9-20" value="Private subnet" style="points=[[0,0],[0.25,0],[0.5,0],[0.75,0],[1,0],[1,0.25],[1,0.5],[1,0.75],[1,1],[0.75,1],[0.5,1],[0.25,1],[0,1],[0,0.75],[0,0.5],[0,0.25]];outlineConnect=0;gradientColor=none;html=1;whiteSpace=wrap;fontSize=12;fontStyle=0;container=1;pointerEvents=0;collapsible=0;recursiveResize=0;shape=mxgraph.aws4.group;grIcon=mxgraph.aws4.group_security_group;grStroke=0;strokeColor=#00A4A6;fillColor=#E6F6F7;verticalAlign=top;align=left;spacingLeft=30;fontColor=#147EBA;dashed=0;" vertex="1" parent="1">
          <mxGeometry x="269" y="165" width="117.28" height="77" as="geometry" />
        </mxCell>
        <mxCell id="Mk-wmRrCm_N_TDCvmCY9-21" value="Public subnet" style="points=[[0,0],[0.25,0],[0.5,0],[0.75,0],[1,0],[1,0.25],[1,0.5],[1,0.75],[1,1],[0.75,1],[0.5,1],[0.25,1],[0,1],[0,0.75],[0,0.5],[0,0.25]];outlineConnect=0;gradientColor=none;html=1;whiteSpace=wrap;fontSize=12;fontStyle=0;container=1;pointerEvents=0;collapsible=0;recursiveResize=0;shape=mxgraph.aws4.group;grIcon=mxgraph.aws4.group_security_group;grStroke=0;strokeColor=#7AA116;fillColor=#F2F6E8;verticalAlign=top;align=left;spacingLeft=30;fontColor=#248814;dashed=0;" vertex="1" parent="1">
          <mxGeometry x="107" y="165" width="118" height="76" as="geometry" />
        </mxCell>
        <mxCell id="Mk-wmRrCm_N_TDCvmCY9-22" value="" style="sketch=0;outlineConnect=0;fontColor=#232F3E;gradientColor=none;fillColor=#8C4FFF;strokeColor=none;dashed=0;verticalLabelPosition=bottom;verticalAlign=top;align=center;html=1;fontSize=12;fontStyle=0;aspect=fixed;pointerEvents=1;shape=mxgraph.aws4.nat_gateway;" vertex="1" parent="Mk-wmRrCm_N_TDCvmCY9-21">
          <mxGeometry x="46" y="29" width="29" height="29" as="geometry" />
        </mxCell>
        <mxCell id="Mk-wmRrCm_N_TDCvmCY9-23" style="edgeStyle=orthogonalEdgeStyle;rounded=0;orthogonalLoop=1;jettySize=auto;html=1;strokeWidth=0.5;" edge="1" parent="1" source="Mk-wmRrCm_N_TDCvmCY9-22" target="Mk-wmRrCm_N_TDCvmCY9-7">
          <mxGeometry relative="1" as="geometry" />
        </mxCell>
        <mxCell id="Mk-wmRrCm_N_TDCvmCY9-24" style="edgeStyle=orthogonalEdgeStyle;rounded=0;orthogonalLoop=1;jettySize=auto;html=1;strokeWidth=0.5;" edge="1" parent="1" source="Mk-wmRrCm_N_TDCvmCY9-19" target="Mk-wmRrCm_N_TDCvmCY9-7">
          <mxGeometry relative="1" as="geometry" />
        </mxCell>
        <mxCell id="Mk-wmRrCm_N_TDCvmCY9-25" value="" style="sketch=0;outlineConnect=0;fontColor=#232F3E;gradientColor=none;fillColor=#ED7100;strokeColor=none;dashed=0;verticalLabelPosition=bottom;verticalAlign=top;align=center;html=1;fontSize=12;fontStyle=0;aspect=fixed;pointerEvents=1;shape=mxgraph.aws4.auto_scaling2;" vertex="1" parent="1">
          <mxGeometry x="316.5" y="269.98044692737426" width="22.363636363636363" height="22.363636363636363" as="geometry" />
        </mxCell>
        <mxCell id="Mk-wmRrCm_N_TDCvmCY9-26" value="Private subnet" style="points=[[0,0],[0.25,0],[0.5,0],[0.75,0],[1,0],[1,0.25],[1,0.5],[1,0.75],[1,1],[0.75,1],[0.5,1],[0.25,1],[0,1],[0,0.75],[0,0.5],[0,0.25]];outlineConnect=0;gradientColor=none;html=1;whiteSpace=wrap;fontSize=12;fontStyle=0;container=1;pointerEvents=0;collapsible=0;recursiveResize=0;shape=mxgraph.aws4.group;grIcon=mxgraph.aws4.group_security_group;grStroke=0;strokeColor=#00A4A6;fillColor=#E6F6F7;verticalAlign=top;align=left;spacingLeft=30;fontColor=#147EBA;dashed=0;" vertex="1" parent="1">
          <mxGeometry x="269" y="325" width="117.28" height="77" as="geometry" />
        </mxCell>
        <mxCell id="Mk-wmRrCm_N_TDCvmCY9-27" value="19.50.22.33" style="text;html=1;align=center;verticalAlign=middle;resizable=0;points=[];autosize=1;strokeColor=none;fillColor=none;fontSize=5;" vertex="1" parent="1">
          <mxGeometry x="305" y="340" width="44" height="18" as="geometry" />
        </mxCell>
        <mxCell id="Mk-wmRrCm_N_TDCvmCY9-28" value="" style="edgeStyle=orthogonalEdgeStyle;rounded=0;orthogonalLoop=1;jettySize=auto;html=1;entryX=0;entryY=0.75;entryDx=0;entryDy=0;entryPerimeter=0;exitX=1;exitY=0.75;exitDx=0;exitDy=0;exitPerimeter=0;strokeWidth=0.5;" edge="1" parent="1" source="Mk-wmRrCm_N_TDCvmCY9-29" target="Mk-wmRrCm_N_TDCvmCY9-12">
          <mxGeometry relative="1" as="geometry" />
        </mxCell>
        <mxCell id="Mk-wmRrCm_N_TDCvmCY9-29" value="Wordpress Server" style="sketch=0;points=[[0,0,0],[0.25,0,0],[0.5,0,0],[0.75,0,0],[1,0,0],[0,1,0],[0.25,1,0],[0.5,1,0],[0.75,1,0],[1,1,0],[0,0.25,0],[0,0.5,0],[0,0.75,0],[1,0.25,0],[1,0.5,0],[1,0.75,0]];outlineConnect=0;fontColor=#232F3E;fillColor=#ED7100;strokeColor=#ffffff;dashed=0;verticalLabelPosition=bottom;verticalAlign=top;align=center;html=1;fontSize=7;fontStyle=0;aspect=fixed;shape=mxgraph.aws4.resourceIcon;resIcon=mxgraph.aws4.ec2;" vertex="1" parent="1">
          <mxGeometry x="314.64" y="355" width="26" height="26" as="geometry" />
        </mxCell>
        <mxCell id="Mk-wmRrCm_N_TDCvmCY9-30" style="edgeStyle=orthogonalEdgeStyle;rounded=0;orthogonalLoop=1;jettySize=auto;html=1;entryX=0;entryY=0.5;entryDx=0;entryDy=0;entryPerimeter=0;strokeWidth=0.5;" edge="1" parent="1" target="Mk-wmRrCm_N_TDCvmCY9-29">
          <mxGeometry relative="1" as="geometry">
            <mxPoint x="195" y="282" as="sourcePoint" />
          </mxGeometry>
        </mxCell>
        <mxCell id="Mk-wmRrCm_N_TDCvmCY9-31" value="Postgres (replica)" style="sketch=0;points=[[0,0,0],[0.25,0,0],[0.5,0,0],[0.75,0,0],[1,0,0],[0,1,0],[0.25,1,0],[0.5,1,0],[0.75,1,0],[1,1,0],[0,0.25,0],[0,0.5,0],[0,0.75,0],[1,0.25,0],[1,0.5,0],[1,0.75,0]];outlineConnect=0;fillColor=#f8cecc;strokeColor=#b85450;dashed=0;verticalLabelPosition=top;verticalAlign=bottom;align=center;html=1;fontSize=7;fontStyle=0;aspect=fixed;shape=mxgraph.aws4.resourceIcon;resIcon=mxgraph.aws4.rds;labelPosition=center;" vertex="1" parent="1">
          <mxGeometry x="474.14" y="204" width="24" height="24" as="geometry" />
        </mxCell>
        <mxCell id="Mk-wmRrCm_N_TDCvmCY9-32" value="Wordpress Server" style="sketch=0;points=[[0,0,0],[0.25,0,0],[0.5,0,0],[0.75,0,0],[1,0,0],[0,1,0],[0.25,1,0],[0.5,1,0],[0.75,1,0],[1,1,0],[0,0.25,0],[0,0.5,0],[0,0.75,0],[1,0.25,0],[1,0.5,0],[1,0.75,0]];outlineConnect=0;fontColor=#232F3E;fillColor=#ED7100;strokeColor=#ffffff;dashed=0;verticalLabelPosition=bottom;verticalAlign=top;align=center;html=1;fontSize=7;fontStyle=0;aspect=fixed;shape=mxgraph.aws4.resourceIcon;resIcon=mxgraph.aws4.ec2;" vertex="1" parent="1">
          <mxGeometry x="314.64" y="200" width="26" height="26" as="geometry" />
        </mxCell>
        <mxCell id="Mk-wmRrCm_N_TDCvmCY9-33" style="edgeStyle=orthogonalEdgeStyle;rounded=0;orthogonalLoop=1;jettySize=auto;html=1;entryX=0;entryY=0.5;entryDx=0;entryDy=0;entryPerimeter=0;strokeWidth=0.5;" edge="1" parent="1" target="Mk-wmRrCm_N_TDCvmCY9-32">
          <mxGeometry relative="1" as="geometry">
            <mxPoint x="195" y="282" as="sourcePoint" />
          </mxGeometry>
        </mxCell>
        <mxCell id="Mk-wmRrCm_N_TDCvmCY9-34" value="19.50.22.34" style="text;html=1;align=center;verticalAlign=middle;resizable=0;points=[];autosize=1;strokeColor=none;fillColor=none;fontSize=5;" vertex="1" parent="1">
          <mxGeometry x="304" y="180" width="44" height="18" as="geometry" />
        </mxCell>
        <mxCell id="Mk-wmRrCm_N_TDCvmCY9-35" style="edgeStyle=orthogonalEdgeStyle;rounded=0;orthogonalLoop=1;jettySize=auto;html=1;entryX=0;entryY=0.25;entryDx=0;entryDy=0;entryPerimeter=0;strokeWidth=0.5;" edge="1" parent="1" source="Mk-wmRrCm_N_TDCvmCY9-32" target="Mk-wmRrCm_N_TDCvmCY9-12">
          <mxGeometry relative="1" as="geometry" />
        </mxCell>
        <mxCell id="Mk-wmRrCm_N_TDCvmCY9-36" style="edgeStyle=orthogonalEdgeStyle;rounded=0;orthogonalLoop=1;jettySize=auto;html=1;entryX=0.5;entryY=1;entryDx=0;entryDy=0;entryPerimeter=0;strokeWidth=0.5;" edge="1" parent="1" source="Mk-wmRrCm_N_TDCvmCY9-12" target="Mk-wmRrCm_N_TDCvmCY9-31">
          <mxGeometry relative="1" as="geometry" />
        </mxCell>
        <mxCell id="Mk-wmRrCm_N_TDCvmCY9-37" value="5432" style="text;html=1;align=center;verticalAlign=middle;resizable=0;points=[];autosize=1;strokeColor=none;fillColor=none;fontSize=7;" vertex="1" parent="1">
          <mxGeometry x="427" y="381" width="34" height="20" as="geometry" />
        </mxCell>
        <mxCell id="Mk-wmRrCm_N_TDCvmCY9-38" value="S3" style="outlineConnect=0;dashed=0;verticalLabelPosition=bottom;verticalAlign=top;align=center;html=1;shape=mxgraph.aws3.s3;fillColor=#E05243;gradientColor=none;fontSize=7;" vertex="1" parent="1">
          <mxGeometry x="607.25" y="255" width="34" height="41.33" as="geometry" />
        </mxCell>
        <mxCell id="Mk-wmRrCm_N_TDCvmCY9-39" style="edgeStyle=orthogonalEdgeStyle;rounded=0;orthogonalLoop=1;jettySize=auto;html=1;exitX=0.75;exitY=0;exitDx=0;exitDy=0;exitPerimeter=0;entryX=0;entryY=0.79;entryDx=0;entryDy=0;entryPerimeter=0;strokeWidth=0.5;" edge="1" parent="1" source="Mk-wmRrCm_N_TDCvmCY9-29" target="Mk-wmRrCm_N_TDCvmCY9-38">
          <mxGeometry relative="1" as="geometry" />
        </mxCell>
        <mxCell id="Mk-wmRrCm_N_TDCvmCY9-40" style="edgeStyle=orthogonalEdgeStyle;rounded=0;orthogonalLoop=1;jettySize=auto;html=1;exitX=0.75;exitY=1;exitDx=0;exitDy=0;exitPerimeter=0;entryX=0;entryY=0.5;entryDx=0;entryDy=0;entryPerimeter=0;strokeWidth=0.5;" edge="1" parent="1" source="Mk-wmRrCm_N_TDCvmCY9-32" target="Mk-wmRrCm_N_TDCvmCY9-38">
          <mxGeometry relative="1" as="geometry" />
        </mxCell>
        <mxCell id="Mk-wmRrCm_N_TDCvmCY9-41" value="Region" style="points=[[0,0],[0.25,0],[0.5,0],[0.75,0],[1,0],[1,0.25],[1,0.5],[1,0.75],[1,1],[0.75,1],[0.5,1],[0.25,1],[0,1],[0,0.75],[0,0.5],[0,0.25]];outlineConnect=0;html=1;whiteSpace=wrap;fontSize=7;fontStyle=0;container=1;pointerEvents=0;collapsible=0;recursiveResize=0;shape=mxgraph.aws4.group;grIcon=mxgraph.aws4.group_region;verticalAlign=top;align=left;spacingLeft=30;dashed=1;" vertex="1" parent="1">
          <mxGeometry x="-70" y="487" width="737.5" height="343" as="geometry" />
        </mxCell>
        <mxCell id="Mk-wmRrCm_N_TDCvmCY9-42" value="Frankfurth" style="text;html=1;align=center;verticalAlign=middle;resizable=0;points=[];autosize=1;strokeColor=none;fillColor=none;rotation=-90;" vertex="1" parent="Mk-wmRrCm_N_TDCvmCY9-41">
          <mxGeometry x="-13.999999999999982" y="58" width="73" height="26" as="geometry" />
        </mxCell>
        <mxCell id="Mk-wmRrCm_N_TDCvmCY9-43" value="VPC" style="points=[[0,0],[0.25,0],[0.5,0],[0.75,0],[1,0],[1,0.25],[1,0.5],[1,0.75],[1,1],[0.75,1],[0.5,1],[0.25,1],[0,1],[0,0.75],[0,0.5],[0,0.25]];outlineConnect=0;gradientColor=none;html=1;whiteSpace=wrap;fontSize=12;fontStyle=0;container=1;pointerEvents=0;collapsible=0;recursiveResize=0;shape=mxgraph.aws4.group;grIcon=mxgraph.aws4.group_vpc2;strokeColor=#8C4FFF;fillColor=none;verticalAlign=top;align=left;spacingLeft=30;fontColor=#AAB7B8;dashed=0;" vertex="1" parent="Mk-wmRrCm_N_TDCvmCY9-41">
          <mxGeometry x="99" y="15" width="638.5" height="316" as="geometry" />
        </mxCell>
        <mxCell id="Mk-wmRrCm_N_TDCvmCY9-44" value="" style="group" vertex="1" connectable="0" parent="Mk-wmRrCm_N_TDCvmCY9-43">
          <mxGeometry x="46" y="179" width="490" height="125" as="geometry" />
        </mxCell>
        <mxCell id="Mk-wmRrCm_N_TDCvmCY9-45" value="Availability zone" style="sketch=0;outlineConnect=0;gradientColor=none;html=1;whiteSpace=wrap;fontSize=12;fontStyle=0;shape=mxgraph.aws4.group;grIcon=mxgraph.aws4.group_availability_zone;strokeColor=#545B64;fillColor=none;verticalAlign=top;align=left;spacingLeft=30;fontColor=#545B64;dashed=1;" vertex="1" parent="Mk-wmRrCm_N_TDCvmCY9-44">
          <mxGeometry width="490" height="121" as="geometry" />
        </mxCell>
        <mxCell id="Mk-wmRrCm_N_TDCvmCY9-46" style="edgeStyle=orthogonalEdgeStyle;rounded=0;orthogonalLoop=1;jettySize=auto;html=1;strokeWidth=0.5;" edge="1" parent="Mk-wmRrCm_N_TDCvmCY9-43" source="Mk-wmRrCm_N_TDCvmCY9-47" target="Mk-wmRrCm_N_TDCvmCY9-54">
          <mxGeometry relative="1" as="geometry" />
        </mxCell>
        <mxCell id="Mk-wmRrCm_N_TDCvmCY9-47" value="Internet&lt;br style=&quot;font-size: 7px;&quot;&gt;Gateway" style="sketch=0;outlineConnect=0;fontColor=#232F3E;gradientColor=none;fillColor=#8C4FFF;strokeColor=none;dashed=0;verticalLabelPosition=bottom;verticalAlign=top;align=center;html=1;fontSize=7;fontStyle=0;aspect=fixed;pointerEvents=1;shape=mxgraph.aws4.nat_gateway;" vertex="1" parent="Mk-wmRrCm_N_TDCvmCY9-43">
          <mxGeometry x="-9" y="144.5" width="29" height="29" as="geometry" />
        </mxCell>
        <mxCell id="Mk-wmRrCm_N_TDCvmCY9-48" value="" style="group" vertex="1" connectable="0" parent="Mk-wmRrCm_N_TDCvmCY9-43">
          <mxGeometry x="46" y="19" width="592.5" height="265" as="geometry" />
        </mxCell>
        <mxCell id="Mk-wmRrCm_N_TDCvmCY9-49" value="Availability zone" style="sketch=0;outlineConnect=0;gradientColor=none;html=1;whiteSpace=wrap;fontSize=12;fontStyle=0;shape=mxgraph.aws4.group;grIcon=mxgraph.aws4.group_availability_zone;strokeColor=#545B64;fillColor=none;verticalAlign=top;align=left;spacingLeft=30;fontColor=#545B64;dashed=1;" vertex="1" parent="Mk-wmRrCm_N_TDCvmCY9-48">
          <mxGeometry width="490.99999999999994" height="121" as="geometry" />
        </mxCell>
        <mxCell id="Mk-wmRrCm_N_TDCvmCY9-50" value="Private subnet" style="points=[[0,0],[0.25,0],[0.5,0],[0.75,0],[1,0],[1,0.25],[1,0.5],[1,0.75],[1,1],[0.75,1],[0.5,1],[0.25,1],[0,1],[0,0.75],[0,0.5],[0,0.25]];outlineConnect=0;gradientColor=none;html=1;whiteSpace=wrap;fontSize=12;fontStyle=0;container=1;pointerEvents=0;collapsible=0;recursiveResize=0;shape=mxgraph.aws4.group;grIcon=mxgraph.aws4.group_security_group;grStroke=0;strokeColor=#00A4A6;fillColor=#E6F6F7;verticalAlign=top;align=left;spacingLeft=30;fontColor=#147EBA;dashed=0;" vertex="1" parent="Mk-wmRrCm_N_TDCvmCY9-48">
          <mxGeometry x="354" y="23" width="117.28" height="77" as="geometry" />
        </mxCell>
        <mxCell id="Mk-wmRrCm_N_TDCvmCY9-51" value="Private subnet" style="points=[[0,0],[0.25,0],[0.5,0],[0.75,0],[1,0],[1,0.25],[1,0.5],[1,0.75],[1,1],[0.75,1],[0.5,1],[0.25,1],[0,1],[0,0.75],[0,0.5],[0,0.25]];outlineConnect=0;gradientColor=none;html=1;whiteSpace=wrap;fontSize=12;fontStyle=0;container=1;pointerEvents=0;collapsible=0;recursiveResize=0;shape=mxgraph.aws4.group;grIcon=mxgraph.aws4.group_security_group;grStroke=0;strokeColor=#00A4A6;fillColor=#E6F6F7;verticalAlign=top;align=left;spacingLeft=30;fontColor=#147EBA;dashed=0;" vertex="1" parent="Mk-wmRrCm_N_TDCvmCY9-48">
          <mxGeometry x="354" y="183" width="117.28" height="77" as="geometry" />
        </mxCell>
        <mxCell id="Mk-wmRrCm_N_TDCvmCY9-52" value="Postgres (main)" style="sketch=0;points=[[0,0,0],[0.25,0,0],[0.5,0,0],[0.75,0,0],[1,0,0],[0,1,0],[0.25,1,0],[0.5,1,0],[0.75,1,0],[1,1,0],[0,0.25,0],[0,0.5,0],[0,0.75,0],[1,0.25,0],[1,0.5,0],[1,0.75,0]];outlineConnect=0;fillColor=#f8cecc;strokeColor=#b85450;dashed=0;verticalLabelPosition=bottom;verticalAlign=top;align=center;html=1;fontSize=7;fontStyle=0;aspect=fixed;shape=mxgraph.aws4.resourceIcon;resIcon=mxgraph.aws4.rds;" vertex="1" parent="Mk-wmRrCm_N_TDCvmCY9-48">
          <mxGeometry x="400.64" y="214" width="24" height="24" as="geometry" />
        </mxCell>
        <mxCell id="Mk-wmRrCm_N_TDCvmCY9-53" value="" style="rounded=0;whiteSpace=wrap;html=1;fillColor=none;dashed=1;strokeWidth=0.5;" vertex="1" parent="Mk-wmRrCm_N_TDCvmCY9-48">
          <mxGeometry x="510" y="9.5" width="82.5" height="246" as="geometry" />
        </mxCell>
        <mxCell id="Mk-wmRrCm_N_TDCvmCY9-54" value="" style="sketch=0;outlineConnect=0;fontColor=#232F3E;gradientColor=none;fillColor=#8C4FFF;strokeColor=none;dashed=0;verticalLabelPosition=bottom;verticalAlign=top;align=center;html=1;fontSize=12;fontStyle=0;aspect=fixed;pointerEvents=1;shape=mxgraph.aws4.application_load_balancer;" vertex="1" parent="Mk-wmRrCm_N_TDCvmCY9-43">
          <mxGeometry x="126" y="138" width="42" height="42" as="geometry" />
        </mxCell>
        <mxCell id="Mk-wmRrCm_N_TDCvmCY9-55" style="edgeStyle=orthogonalEdgeStyle;rounded=0;orthogonalLoop=1;jettySize=auto;html=1;exitX=1;exitY=0.5;exitDx=0;exitDy=0;exitPerimeter=0;" edge="1" parent="1" source="Mk-wmRrCm_N_TDCvmCY9-56" target="Mk-wmRrCm_N_TDCvmCY9-47">
          <mxGeometry relative="1" as="geometry">
            <Array as="points">
              <mxPoint x="-105" y="468" />
              <mxPoint x="-105" y="661" />
            </Array>
          </mxGeometry>
        </mxCell>
        <mxCell id="Mk-wmRrCm_N_TDCvmCY9-56" value="Route 53&lt;br style=&quot;font-size: 7px;&quot;&gt;DNS Management" style="outlineConnect=0;dashed=0;verticalLabelPosition=bottom;verticalAlign=top;align=center;html=1;shape=mxgraph.aws3.route_53;fillColor=#F58536;gradientColor=none;fontSize=7;" vertex="1" parent="1">
          <mxGeometry x="-205" y="445" width="38.34" height="46.5" as="geometry" />
        </mxCell>
        <mxCell id="Mk-wmRrCm_N_TDCvmCY9-57" value="Public subnet" style="points=[[0,0],[0.25,0],[0.5,0],[0.75,0],[1,0],[1,0.25],[1,0.5],[1,0.75],[1,1],[0.75,1],[0.5,1],[0.25,1],[0,1],[0,0.75],[0,0.5],[0,0.25]];outlineConnect=0;gradientColor=none;html=1;whiteSpace=wrap;fontSize=12;fontStyle=0;container=1;pointerEvents=0;collapsible=0;recursiveResize=0;shape=mxgraph.aws4.group;grIcon=mxgraph.aws4.group_security_group;grStroke=0;strokeColor=#7AA116;fillColor=#F2F6E8;verticalAlign=top;align=left;spacingLeft=30;fontColor=#248814;dashed=0;" vertex="1" parent="1">
          <mxGeometry x="109" y="704" width="118" height="76" as="geometry" />
        </mxCell>
        <mxCell id="Mk-wmRrCm_N_TDCvmCY9-58" value="" style="sketch=0;outlineConnect=0;fontColor=#232F3E;gradientColor=none;fillColor=#8C4FFF;strokeColor=none;dashed=0;verticalLabelPosition=bottom;verticalAlign=top;align=center;html=1;fontSize=12;fontStyle=0;aspect=fixed;pointerEvents=1;shape=mxgraph.aws4.nat_gateway;" vertex="1" parent="Mk-wmRrCm_N_TDCvmCY9-57">
          <mxGeometry x="46" y="29" width="29" height="29" as="geometry" />
        </mxCell>
        <mxCell id="Mk-wmRrCm_N_TDCvmCY9-59" value="Private subnet" style="points=[[0,0],[0.25,0],[0.5,0],[0.75,0],[1,0],[1,0.25],[1,0.5],[1,0.75],[1,1],[0.75,1],[0.5,1],[0.25,1],[0,1],[0,0.75],[0,0.5],[0,0.25]];outlineConnect=0;gradientColor=none;html=1;whiteSpace=wrap;fontSize=12;fontStyle=0;container=1;pointerEvents=0;collapsible=0;recursiveResize=0;shape=mxgraph.aws4.group;grIcon=mxgraph.aws4.group_security_group;grStroke=0;strokeColor=#00A4A6;fillColor=#E6F6F7;verticalAlign=top;align=left;spacingLeft=30;fontColor=#147EBA;dashed=0;" vertex="1" parent="1">
          <mxGeometry x="271" y="544" width="117.28" height="77" as="geometry" />
        </mxCell>
        <mxCell id="Mk-wmRrCm_N_TDCvmCY9-60" value="Public subnet" style="points=[[0,0],[0.25,0],[0.5,0],[0.75,0],[1,0],[1,0.25],[1,0.5],[1,0.75],[1,1],[0.75,1],[0.5,1],[0.25,1],[0,1],[0,0.75],[0,0.5],[0,0.25]];outlineConnect=0;gradientColor=none;html=1;whiteSpace=wrap;fontSize=12;fontStyle=0;container=1;pointerEvents=0;collapsible=0;recursiveResize=0;shape=mxgraph.aws4.group;grIcon=mxgraph.aws4.group_security_group;grStroke=0;strokeColor=#7AA116;fillColor=#F2F6E8;verticalAlign=top;align=left;spacingLeft=30;fontColor=#248814;dashed=0;" vertex="1" parent="1">
          <mxGeometry x="109" y="544" width="118" height="76" as="geometry" />
        </mxCell>
        <mxCell id="Mk-wmRrCm_N_TDCvmCY9-61" value="" style="sketch=0;outlineConnect=0;fontColor=#232F3E;gradientColor=none;fillColor=#8C4FFF;strokeColor=none;dashed=0;verticalLabelPosition=bottom;verticalAlign=top;align=center;html=1;fontSize=12;fontStyle=0;aspect=fixed;pointerEvents=1;shape=mxgraph.aws4.nat_gateway;" vertex="1" parent="Mk-wmRrCm_N_TDCvmCY9-60">
          <mxGeometry x="46" y="29" width="29" height="29" as="geometry" />
        </mxCell>
        <mxCell id="Mk-wmRrCm_N_TDCvmCY9-62" style="edgeStyle=orthogonalEdgeStyle;rounded=0;orthogonalLoop=1;jettySize=auto;html=1;strokeWidth=0.5;" edge="1" parent="1" source="Mk-wmRrCm_N_TDCvmCY9-61" target="Mk-wmRrCm_N_TDCvmCY9-47">
          <mxGeometry relative="1" as="geometry" />
        </mxCell>
        <mxCell id="Mk-wmRrCm_N_TDCvmCY9-63" style="edgeStyle=orthogonalEdgeStyle;rounded=0;orthogonalLoop=1;jettySize=auto;html=1;strokeWidth=0.5;" edge="1" parent="1" source="Mk-wmRrCm_N_TDCvmCY9-58" target="Mk-wmRrCm_N_TDCvmCY9-47">
          <mxGeometry relative="1" as="geometry" />
        </mxCell>
        <mxCell id="Mk-wmRrCm_N_TDCvmCY9-64" value="" style="sketch=0;outlineConnect=0;fontColor=#232F3E;gradientColor=none;fillColor=#ED7100;strokeColor=none;dashed=0;verticalLabelPosition=bottom;verticalAlign=top;align=center;html=1;fontSize=12;fontStyle=0;aspect=fixed;pointerEvents=1;shape=mxgraph.aws4.auto_scaling2;" vertex="1" parent="1">
          <mxGeometry x="318.5" y="648.9804469273743" width="22.363636363636363" height="22.363636363636363" as="geometry" />
        </mxCell>
        <mxCell id="Mk-wmRrCm_N_TDCvmCY9-65" value="Private subnet" style="points=[[0,0],[0.25,0],[0.5,0],[0.75,0],[1,0],[1,0.25],[1,0.5],[1,0.75],[1,1],[0.75,1],[0.5,1],[0.25,1],[0,1],[0,0.75],[0,0.5],[0,0.25]];outlineConnect=0;gradientColor=none;html=1;whiteSpace=wrap;fontSize=12;fontStyle=0;container=1;pointerEvents=0;collapsible=0;recursiveResize=0;shape=mxgraph.aws4.group;grIcon=mxgraph.aws4.group_security_group;grStroke=0;strokeColor=#00A4A6;fillColor=#E6F6F7;verticalAlign=top;align=left;spacingLeft=30;fontColor=#147EBA;dashed=0;" vertex="1" parent="1">
          <mxGeometry x="271" y="704" width="117.28" height="77" as="geometry" />
        </mxCell>
        <mxCell id="Mk-wmRrCm_N_TDCvmCY9-66" value="19.50.22.33" style="text;html=1;align=center;verticalAlign=middle;resizable=0;points=[];autosize=1;strokeColor=none;fillColor=none;fontSize=5;" vertex="1" parent="1">
          <mxGeometry x="307" y="719" width="44" height="18" as="geometry" />
        </mxCell>
        <mxCell id="Mk-wmRrCm_N_TDCvmCY9-67" value="" style="edgeStyle=orthogonalEdgeStyle;rounded=0;orthogonalLoop=1;jettySize=auto;html=1;entryX=0;entryY=0.75;entryDx=0;entryDy=0;entryPerimeter=0;exitX=1;exitY=0.75;exitDx=0;exitDy=0;exitPerimeter=0;strokeWidth=0.5;" edge="1" parent="1" source="Mk-wmRrCm_N_TDCvmCY9-68" target="Mk-wmRrCm_N_TDCvmCY9-52">
          <mxGeometry relative="1" as="geometry" />
        </mxCell>
        <mxCell id="Mk-wmRrCm_N_TDCvmCY9-68" value="Wordpress Server" style="sketch=0;points=[[0,0,0],[0.25,0,0],[0.5,0,0],[0.75,0,0],[1,0,0],[0,1,0],[0.25,1,0],[0.5,1,0],[0.75,1,0],[1,1,0],[0,0.25,0],[0,0.5,0],[0,0.75,0],[1,0.25,0],[1,0.5,0],[1,0.75,0]];outlineConnect=0;fontColor=#232F3E;fillColor=#ED7100;strokeColor=#ffffff;dashed=0;verticalLabelPosition=bottom;verticalAlign=top;align=center;html=1;fontSize=7;fontStyle=0;aspect=fixed;shape=mxgraph.aws4.resourceIcon;resIcon=mxgraph.aws4.ec2;" vertex="1" parent="1">
          <mxGeometry x="316.64" y="734" width="26" height="26" as="geometry" />
        </mxCell>
        <mxCell id="Mk-wmRrCm_N_TDCvmCY9-69" style="edgeStyle=orthogonalEdgeStyle;rounded=0;orthogonalLoop=1;jettySize=auto;html=1;entryX=0;entryY=0.5;entryDx=0;entryDy=0;entryPerimeter=0;strokeWidth=0.5;" edge="1" parent="1" target="Mk-wmRrCm_N_TDCvmCY9-68">
          <mxGeometry relative="1" as="geometry">
            <mxPoint x="197" y="661" as="sourcePoint" />
          </mxGeometry>
        </mxCell>
        <mxCell id="Mk-wmRrCm_N_TDCvmCY9-70" value="Postgres (replica)" style="sketch=0;points=[[0,0,0],[0.25,0,0],[0.5,0,0],[0.75,0,0],[1,0,0],[0,1,0],[0.25,1,0],[0.5,1,0],[0.75,1,0],[1,1,0],[0,0.25,0],[0,0.5,0],[0,0.75,0],[1,0.25,0],[1,0.5,0],[1,0.75,0]];outlineConnect=0;fillColor=#f8cecc;strokeColor=#b85450;dashed=0;verticalLabelPosition=top;verticalAlign=bottom;align=center;html=1;fontSize=7;fontStyle=0;aspect=fixed;shape=mxgraph.aws4.resourceIcon;resIcon=mxgraph.aws4.rds;labelPosition=center;" vertex="1" parent="1">
          <mxGeometry x="476.14" y="583" width="24" height="24" as="geometry" />
        </mxCell>
        <mxCell id="Mk-wmRrCm_N_TDCvmCY9-71" value="Wordpress Server" style="sketch=0;points=[[0,0,0],[0.25,0,0],[0.5,0,0],[0.75,0,0],[1,0,0],[0,1,0],[0.25,1,0],[0.5,1,0],[0.75,1,0],[1,1,0],[0,0.25,0],[0,0.5,0],[0,0.75,0],[1,0.25,0],[1,0.5,0],[1,0.75,0]];outlineConnect=0;fontColor=#232F3E;fillColor=#ED7100;strokeColor=#ffffff;dashed=0;verticalLabelPosition=bottom;verticalAlign=top;align=center;html=1;fontSize=7;fontStyle=0;aspect=fixed;shape=mxgraph.aws4.resourceIcon;resIcon=mxgraph.aws4.ec2;" vertex="1" parent="1">
          <mxGeometry x="316.64" y="574" width="26" height="26" as="geometry" />
        </mxCell>
        <mxCell id="Mk-wmRrCm_N_TDCvmCY9-72" style="edgeStyle=orthogonalEdgeStyle;rounded=0;orthogonalLoop=1;jettySize=auto;html=1;entryX=0;entryY=0.5;entryDx=0;entryDy=0;entryPerimeter=0;strokeWidth=0.5;" edge="1" parent="1" target="Mk-wmRrCm_N_TDCvmCY9-71">
          <mxGeometry relative="1" as="geometry">
            <mxPoint x="197" y="661" as="sourcePoint" />
          </mxGeometry>
        </mxCell>
        <mxCell id="Mk-wmRrCm_N_TDCvmCY9-73" value="19.50.22.34" style="text;html=1;align=center;verticalAlign=middle;resizable=0;points=[];autosize=1;strokeColor=none;fillColor=none;fontSize=5;" vertex="1" parent="1">
          <mxGeometry x="306" y="559" width="44" height="18" as="geometry" />
        </mxCell>
        <mxCell id="Mk-wmRrCm_N_TDCvmCY9-74" style="edgeStyle=orthogonalEdgeStyle;rounded=0;orthogonalLoop=1;jettySize=auto;html=1;entryX=0;entryY=0.25;entryDx=0;entryDy=0;entryPerimeter=0;strokeWidth=0.5;" edge="1" parent="1" source="Mk-wmRrCm_N_TDCvmCY9-71" target="Mk-wmRrCm_N_TDCvmCY9-52">
          <mxGeometry relative="1" as="geometry" />
        </mxCell>
        <mxCell id="Mk-wmRrCm_N_TDCvmCY9-75" style="edgeStyle=orthogonalEdgeStyle;rounded=0;orthogonalLoop=1;jettySize=auto;html=1;entryX=0.5;entryY=1;entryDx=0;entryDy=0;entryPerimeter=0;strokeWidth=0.5;" edge="1" parent="1" source="Mk-wmRrCm_N_TDCvmCY9-52" target="Mk-wmRrCm_N_TDCvmCY9-70">
          <mxGeometry relative="1" as="geometry" />
        </mxCell>
        <mxCell id="Mk-wmRrCm_N_TDCvmCY9-76" value="5432" style="text;html=1;align=center;verticalAlign=middle;resizable=0;points=[];autosize=1;strokeColor=none;fillColor=none;fontSize=7;" vertex="1" parent="1">
          <mxGeometry x="429" y="760" width="34" height="20" as="geometry" />
        </mxCell>
        <mxCell id="Mk-wmRrCm_N_TDCvmCY9-77" value="S3" style="outlineConnect=0;dashed=0;verticalLabelPosition=bottom;verticalAlign=top;align=center;html=1;shape=mxgraph.aws3.s3;fillColor=#E05243;gradientColor=none;fontSize=7;" vertex="1" parent="1">
          <mxGeometry x="609.25" y="634" width="34" height="41.33" as="geometry" />
        </mxCell>
        <mxCell id="Mk-wmRrCm_N_TDCvmCY9-78" style="edgeStyle=orthogonalEdgeStyle;rounded=0;orthogonalLoop=1;jettySize=auto;html=1;exitX=0.75;exitY=0;exitDx=0;exitDy=0;exitPerimeter=0;entryX=0;entryY=0.79;entryDx=0;entryDy=0;entryPerimeter=0;strokeWidth=0.5;" edge="1" parent="1" source="Mk-wmRrCm_N_TDCvmCY9-68" target="Mk-wmRrCm_N_TDCvmCY9-77">
          <mxGeometry relative="1" as="geometry" />
        </mxCell>
        <mxCell id="Mk-wmRrCm_N_TDCvmCY9-79" style="edgeStyle=orthogonalEdgeStyle;rounded=0;orthogonalLoop=1;jettySize=auto;html=1;exitX=0.75;exitY=1;exitDx=0;exitDy=0;exitPerimeter=0;entryX=0;entryY=0.5;entryDx=0;entryDy=0;entryPerimeter=0;strokeWidth=0.5;" edge="1" parent="1" source="Mk-wmRrCm_N_TDCvmCY9-71" target="Mk-wmRrCm_N_TDCvmCY9-77">
          <mxGeometry relative="1" as="geometry" />
        </mxCell>
        <mxCell id="Mk-wmRrCm_N_TDCvmCY9-80" style="edgeStyle=orthogonalEdgeStyle;rounded=0;orthogonalLoop=1;jettySize=auto;html=1;entryX=0.509;entryY=0.595;entryDx=0;entryDy=0;entryPerimeter=0;" edge="1" parent="1" source="Mk-wmRrCm_N_TDCvmCY9-56" target="Mk-wmRrCm_N_TDCvmCY9-7">
          <mxGeometry relative="1" as="geometry">
            <Array as="points">
              <mxPoint x="-103" y="468" />
              <mxPoint x="-103" y="285" />
            </Array>
          </mxGeometry>
        </mxCell>
      </root>
    </mxGraphModel>
  </diagram>
</mxfile>
